<svg xmlns="http://www.w3.org/2000/svg" viewBox="0 0 640 520" preserveAspectRatio="xMidYMid slice">
<defs>
<linearGradient id="bg" x1="0" y1="0" x2="1" y2="1">
<stop offset="0" stop-color="#f5f6f9"/><stop offset="1" stop-color="#eef1f6"/>
</linearGradient>
<linearGradient id="bar" x1="0" y1="1" x2="0" y2="0">
<stop offset="0" stop-color="#0f1e3d"/><stop offset="1" stop-color="#1b2d52"/>
</linearGradient>
</defs>
<rect width="640" height="520" fill="url(#bg)"/>
<circle cx="540" cy="90" r="120" fill="#c8a04b" fill-opacity=".12"/>
<circle cx="90" cy="450" r="90" fill="#0f1e3d" fill-opacity=".08"/>
<rect x="90" y="110" width="460" height="330" rx="20" fill="#ffffff" stroke="#e4e7ee"/>
<g>
<rect x="140" y="300" width="52" height="90" rx="7" fill="url(#bar)"/>
<rect x="212" y="250" width="52" height="140" rx="7" fill="url(#bar)"/>
<rect x="284" y="200" width="52" height="190" rx="7" fill="url(#bar)"/>
<rect x="356" y="150" width="52" height="240" rx="7" fill="#c8a04b"/>
<path d="M166 300 L238 250 L310 200 L382 150" fill="none" stroke="#0f1e3d" stroke-width="4" stroke-linecap="round"/>
<circle cx="382" cy="150" r="9" fill="#c8a04b" stroke="#fff" stroke-width="3"/>
<path d="M470 175 l22 -22 m0 0 h-16 m16 0 v16" stroke="#c8a04b" stroke-width="5" fill="none" stroke-linecap="round" stroke-linejoin="round"/>
</g>
<rect x="140" y="400" width="360" height="10" rx="5" fill="#e4e7ee"/>
<rect x="140" y="410" width="220" height="10" rx="5" fill="#eef1f6"/>
</svg>