<svg xmlns="http://www.w3.org/2000/svg" viewBox="0 0 1600 900" preserveAspectRatio="xMidYMid slice">
<defs>
<linearGradient id="bg" x1="0" y1="0" x2="1" y2="1">
<stop offset="0" stop-color="#0b2a4a"/><stop offset=".55" stop-color="#123a63"/><stop offset="1" stop-color="#1466b8"/>
</linearGradient>
<radialGradient id="gl" cx=".82" cy=".2" r=".6">
<stop offset="0" stop-color="#1f83e0" stop-opacity=".5"/><stop offset="1" stop-color="#1f83e0" stop-opacity="0"/>
</radialGradient>
</defs>
<rect width="1600" height="900" fill="url(#bg)"/>
<rect width="1600" height="900" fill="url(#gl)"/>
<g fill="none" stroke="#ffffff" stroke-opacity=".055" stroke-width="2">
<circle cx="1300" cy="200" r="360"/><circle cx="1300" cy="200" r="260"/><circle cx="1300" cy="200" r="160"/>
<path d="M0 720 Q400 640 800 700 T1600 660"/><path d="M0 780 Q400 700 800 760 T1600 720"/>
</g>
<g opacity=".5">
<rect x="1080" y="560" width="46" height="150" rx="8" fill="#1f83e0" fill-opacity=".35"/>
<rect x="1150" y="500" width="46" height="210" rx="8" fill="#1f83e0" fill-opacity=".5"/>
<rect x="1220" y="440" width="46" height="270" rx="8" fill="#4aa3f0" fill-opacity=".65"/>
<rect x="1290" y="380" width="46" height="330" rx="8" fill="#4aa3f0" fill-opacity=".85"/>
<path d="M1103 560 L1173 500 L1243 440 L1313 380" fill="none" stroke="#ffffff" stroke-opacity=".55" stroke-width="4"/>
</g>
</svg>