<svg xmlns="http://www.w3.org/2000/svg" viewBox="0 0 520 360" preserveAspectRatio="xMidYMid slice">
<defs>
<linearGradient id="g" x1="0" y1="0" x2="1" y2="1">
<stop offset="0" stop-color="#0b2a4a"/><stop offset=".6" stop-color="#123a63"/><stop offset="1" stop-color="#1466b8"/>
</linearGradient>
<radialGradient id="glow" cx=".78" cy=".22" r=".7">
<stop offset="0" stop-color="#1f83e0" stop-opacity=".45"/><stop offset="1" stop-color="#1f83e0" stop-opacity="0"/>
</radialGradient>
</defs>
<rect width="520" height="360" fill="url(#g)"/>
<rect width="520" height="360" fill="url(#glow)"/>
<g fill="none" stroke="#ffffff" stroke-opacity=".07" stroke-width="2">
<circle cx="440" cy="70" r="120"/><circle cx="440" cy="70" r="80"/><circle cx="60" cy="330" r="90"/>
</g>
<rect x="200" y="70" width="120" height="120" rx="26" fill="#ffffff" fill-opacity=".1" stroke="#1f83e0" stroke-opacity=".5"/>
<g transform="translate(229.0,99.0) scale(2.583)" opacity="1.0"><path d="M19 21V5a2 2 0 00-2-2H7a2 2 0 00-2 2v16m14 0H5m14 0h2M5 21H3m6-14h2m-2 4h2m-2 4h2m4-8h2m-2 4h2m-2 4h2" fill="none" stroke="#4aa3f0" stroke-width="1.7" stroke-linecap="round" stroke-linejoin="round"/></g>
<text x="260" y="300" text-anchor="middle" font-family="'Plus Jakarta Sans',sans-serif" font-size="21" font-weight="700" fill="#ffffff"><tspan x="260" dy="0">Corporate Consultancy</tspan></text>
</svg>